<svg width="144" height="194" viewBox="0 0 144 194" fill="none" xmlns="http://www.w3.org/2000/svg">
<path d="M64.3203 76.8557C62.1735 69.9385 69.3294 63.7368 76.0081 67.3146C80.3016 69.4614 81.4942 75.4245 78.3933 79.0024C77.4392 80.195 76.0081 81.1492 74.5769 81.6262C76.0081 81.1492 77.2007 80.195 78.1548 79.0024C81.9713 73.7548 77.9163 66.3605 71.476 67.3146C67.1826 67.7917 64.3203 72.3238 65.7515 76.3788C65.99 77.3329 64.5588 77.8099 64.3203 76.8557Z" fill="#00875F"/>
<path d="M64.0835 69.9386C68.1384 63.0213 78.6335 64.4524 80.5418 72.3238C81.9729 77.5714 78.1565 82.8191 72.6704 83.0576C71.0007 83.2961 69.331 82.819 67.8999 81.8649C69.331 82.5805 71.0007 83.0576 72.6704 82.819C79.8262 82.342 82.6885 73.278 77.2024 68.5075C73.6245 65.4066 67.6613 66.5992 65.5146 70.6541C64.799 71.8468 63.3679 70.8927 64.0835 69.9386Z" fill="#00875F"/>
<path d="M69.5681 64.4521C78.3936 62.7824 85.0723 72.3233 80.0633 79.9562C76.7239 84.9652 69.3295 85.6809 65.0361 81.3875C63.8434 79.9563 62.8894 78.2865 62.4124 76.6168C62.8894 78.2865 63.8435 79.9563 65.2746 81.1489C70.9993 86.635 80.7789 82.5801 80.5403 74.4702C80.3018 68.9841 75.0543 64.929 70.0452 66.3602C68.614 66.5987 68.3755 64.6906 69.5681 64.4521Z" fill="#00875F"/>
<path d="M78.1574 64.9293C86.2673 70.8925 83.1664 83.5344 73.1483 85.2041C66.4695 86.1582 60.5064 80.4336 60.9835 73.7549C60.9835 71.8467 61.6991 69.6998 62.8917 68.0301C61.9376 69.6998 61.222 71.8467 61.222 73.7549C60.9834 82.8189 71.4787 87.5894 78.1574 81.3877C82.4509 77.3328 81.9738 69.9384 76.9647 66.599C75.7721 65.8834 76.9648 64.2138 78.1574 64.9293Z" fill="#00875F"/>
<path d="M84.1179 72.562C85.072 83.5342 72.43 90.4514 63.8431 83.2956C58.1184 78.5251 58.1185 69.4611 64.0817 64.6905C65.7513 63.2594 68.1366 62.5438 70.2833 62.3053C68.1366 62.5438 65.9899 63.498 64.0817 64.9291C56.6873 71.6079 60.5038 83.7728 70.5219 84.7269C77.2006 85.2039 82.6867 79.2408 81.9711 72.8005C81.7326 71.1309 84.1179 70.8923 84.1179 72.562Z" fill="#00875F"/>
<path d="M82.45 83.0575C74.1016 92.1215 58.8358 86.6353 58.3588 74.2319C58.1202 65.8835 65.5146 59.2047 73.863 60.6359C76.2483 61.113 78.6335 62.3056 80.5417 63.9753C78.6335 62.3056 76.2482 61.3515 73.6245 60.8745C62.8908 59.6819 55.4964 72.0851 62.1752 80.6721C66.7072 86.6352 75.7712 86.8739 80.5417 81.3878C81.7344 79.9566 83.6426 81.6263 82.45 83.0575Z" fill="#00875F"/>
<path d="M72.432 89.4975C58.836 89.259 51.9187 72.5621 61.6983 63.021C68.377 56.5808 79.5879 57.7735 84.5969 65.6448C86.0281 68.0301 86.7437 70.8925 86.7437 73.7548C86.7437 70.8925 85.7895 68.0302 84.1199 65.8834C77.2026 55.8653 61.4598 58.9662 59.3131 71.131C57.8819 79.0024 64.3221 86.8736 72.432 86.6351C74.3402 86.6351 74.3402 89.4975 72.432 89.4975Z" fill="#00875F"/>
<path d="M59.7888 85.9197C49.7707 74.4704 58.3576 56.581 73.6233 57.5351C83.88 58.2507 91.0358 68.2688 88.412 78.0484C87.4579 81.1493 85.7882 84.0114 83.4029 85.9197C85.5497 83.7729 87.2194 81.1493 87.935 78.0484C91.0358 64.6909 76.7242 54.1957 65.0364 61.3514C57.4035 66.122 55.7339 77.0943 62.1741 83.773C63.6052 85.4427 61.22 87.5893 59.7888 85.9197Z" fill="#00875F"/>
<path d="M53.112 72.8007C55.2587 56.1038 76.4876 49.902 86.9828 63.021C93.9001 72.085 91.0378 85.6811 80.7812 90.6902C77.6803 92.3598 74.1024 92.8369 70.5245 92.3598C74.1024 92.5984 77.6803 91.8827 80.5426 90.213C93.9001 82.8187 91.9918 63.2596 77.4417 58.9661C67.6621 56.1038 57.4055 63.021 56.6899 73.2776C56.4514 75.6629 52.8735 75.1859 53.112 72.8007Z" fill="#00875F"/>
<path d="M59.0754 57.5351C74.5796 46.8014 95.3315 59.6817 92.2307 78.2867C90.0839 90.6901 76.7264 98.5615 64.8001 93.791C61.2222 92.3598 58.1213 89.736 55.9746 86.6351C58.1213 89.736 61.4607 92.1214 65.0386 93.314C81.0198 98.8001 95.8086 82.5802 88.4142 67.3145C83.6437 57.2964 70.2862 53.9571 61.4607 60.8744C59.314 62.3056 56.9287 59.2047 59.0754 57.5351Z" fill="#00875F"/>
<path d="M76.0092 51.3334C96.2839 56.1039 101.293 82.8189 83.642 94.0296C71.7157 101.424 55.2573 96.1764 50.4868 83.0574C49.0557 78.764 48.8171 74.4705 49.7712 70.177C48.8171 74.4705 49.2942 78.7639 50.9639 82.8189C58.3582 99.9928 82.6878 100.231 89.8436 82.8189C94.6142 71.3696 87.4584 57.7736 75.055 55.6268C72.1927 54.9113 73.1468 50.6178 76.0092 51.3334Z" fill="#00875F"/>
<path d="M93.8978 60.3972C105.109 80.9105 86.742 104.763 64.3205 98.5614C49.2933 94.268 41.422 76.8556 48.8163 63.021C50.9631 58.7276 54.5409 55.1497 58.5959 52.7644C54.5409 55.3882 51.2015 58.9661 49.2933 63.2596C40.7063 82.1032 58.3574 102.378 78.1551 95.4607C91.274 90.6901 96.9987 74.7088 89.6043 63.021C88.1732 60.1587 92.2281 57.5349 93.8978 60.3972Z" fill="#00875F"/>
<path d="M99.6234 82.1032C91.0365 106.433 57.6428 109.057 46.1935 85.9195C38.3222 70.4153 47.1476 50.8561 63.8445 46.8012C69.092 45.37 74.5781 45.6086 79.5872 47.2783C74.5781 45.8472 69.0921 45.8472 64.083 47.2783C42.1386 54.1956 38.5606 84.0114 59.0739 94.9836C72.4314 102.378 90.0824 95.2221 94.3759 80.4335C95.5685 77.0941 100.578 78.5253 99.6234 82.1032Z" fill="#00875F"/>
<path d="M85.7902 102.855C59.5523 114.065 32.3602 88.3047 43.0939 61.5897C50.2497 43.7002 72.6712 36.3059 88.6525 47.0396C93.6616 50.379 97.478 55.1495 99.8633 60.6356C97.2395 55.388 93.1845 50.856 88.1754 47.7551C66.231 34.6362 39.039 53.9568 45.0022 79.0021C49.0571 95.6989 67.9007 104.763 83.4049 97.3687C87.2213 95.699 89.6066 101.185 85.7902 102.855Z" fill="#00875F"/>
<path d="M58.5958 107.149C29.7341 93.5526 30.9267 52.049 60.9811 40.8383C81.0173 33.4439 103.677 46.8015 106.54 67.7919C107.732 74.4706 106.54 81.1493 103.916 87.1125C106.301 81.1493 107.017 74.232 105.824 68.0303C100.338 40.1227 64.0819 32.0128 48.1006 55.627C37.1284 71.3697 43.5686 93.7913 61.2196 100.947C65.513 102.855 62.6508 108.818 58.5958 107.149Z" fill="#00875F"/>
<path d="M34.7445 87.5892C24.7264 53.7184 59.7898 23.9027 91.2753 40.361C112.266 51.3333 118.229 79.9564 102.963 98.0844C98.1925 103.809 91.9908 108.103 85.0735 110.011C91.7523 107.625 97.954 103.332 102.247 97.6074C121.091 72.3236 101.055 36.5447 69.5694 40.5996C48.579 43.2234 34.7445 65.4062 41.9003 85.204C43.57 89.9745 36.4142 92.3597 34.7445 87.5892Z" fill="#00875F"/>
<path d="M33.3122 53.4802C53.587 19.8479 104.393 26.7653 114.173 64.9295C120.851 90.4519 101.531 116.69 75.2929 117.644C66.9444 117.882 58.8346 115.736 51.9173 111.681C59.0731 115.497 67.183 117.167 75.0544 116.451C110.118 113.35 124.668 70.1771 97.9529 47.04C80.0634 31.7743 51.6788 37.022 40.468 57.5353C37.6057 62.5443 30.4499 58.4892 33.3122 53.4802Z" fill="#00875F"/>
<path d="M60.2676 26.7654C103.202 18.6555 135.165 65.6451 111.074 102.14C94.8539 126.708 58.8365 130.286 38.5617 109.057C32.1215 102.617 27.828 94.2683 26.1583 85.4429C28.0665 94.2683 32.8371 102.378 39.2773 108.341C67.9005 134.818 114.652 114.782 113.459 75.4248C112.743 49.4254 87.6981 29.6276 62.1758 35.8293C55.9741 37.0219 54.0659 28.1965 60.2676 26.7654Z" fill="#00875F"/>
<path d="M102.247 29.3889C140.888 58.7276 126.099 120.029 77.917 127.185C45.7159 131.955 15.9 105.002 18.2853 72.5621C18.7624 62.544 22.3403 52.7644 28.542 44.6545C22.8173 53.003 19.7165 62.7825 19.4779 72.5621C18.7623 115.974 70.2841 139.35 101.77 109.534C122.76 89.4976 120.375 53.9571 96.2835 37.7373C90.7974 33.4438 96.7606 25.3339 102.247 29.3889Z" fill="#00875F"/>
<path d="M131.585 65.8836C135.879 119.791 74.339 152.946 32.5969 118.598C4.68928 95.4609 4.68925 50.8565 33.3124 28.6735C42.1379 21.5177 52.8716 17.2242 63.8438 16.5086C52.8716 17.7012 42.3765 22.4717 34.2666 29.6275C-1.98948 61.3515 16.6155 121.222 65.0364 125.038C96.999 127.662 124.668 99.0387 120.136 67.0761C119.42 59.4433 130.631 58.2508 131.585 65.8836Z" fill="#00875F"/>
<path d="M122.998 117.405C81.9714 160.817 8.50527 134.579 6.12 74.4705C4.45032 34.3981 41.1834 1.48131 80.7788 8.39857C93.1822 10.3068 104.631 16.27 113.695 24.6184C104.393 16.5085 92.7051 11.4994 80.5403 10.0683C27.5874 3.62804 -7.95309 63.4984 24.725 106.195C46.431 134.579 90.5584 136.249 113.457 108.818C119.42 102.378 128.723 110.726 122.998 117.405Z" fill="#00875F"/>
<path d="M74.3398 148.414C7.79085 146.982 -25.1259 66.8376 22.5794 20.0864C54.542 -11.1606 109.165 -5.19747 132.779 32.7283C140.412 44.1775 144.228 58.0121 143.989 71.8466C143.512 58.0121 139.219 44.6546 131.348 33.6824C97.2383 -14.977 21.3869 0.288605 10.4146 58.9661C3.02031 98.0845 34.5058 135.533 74.3398 134.34C83.8808 134.34 83.8808 148.175 74.3398 148.414Z" fill="#00875F"/>
<path d="M22.8173 181.569V156.762C22.8173 156.047 23.0558 155.808 23.5329 155.808H24.7255C25.2025 155.808 25.2025 156.047 25.2025 156.762V181.569C25.2025 189.679 21.1476 193.734 12.7991 193.734C8.74419 193.734 5.6434 192.541 3.25814 189.917C1.34992 187.294 0.395752 184.193 0.395752 180.138V156.762C0.395752 156.047 0.6343 155.808 1.34988 155.808H3.49662C3.97368 155.808 4.45075 156.047 4.45075 156.762V180.138C4.45075 183.716 5.40483 186.578 7.31304 188.725C8.98273 190.633 11.1294 191.587 13.9918 191.587C16.6156 191.587 18.7623 190.633 20.432 188.725C22.1017 186.817 22.8173 184.67 22.8173 181.569Z" fill="#E1E1E6"/>
<path d="M52.8727 168.211C55.0194 168.211 56.2121 169.404 56.2121 172.028V192.302C56.2121 193.018 55.9735 193.256 55.2579 193.256H53.3498C52.8727 193.256 52.3956 193.018 52.3956 192.302V172.743C52.3956 172.027 52.3956 171.789 51.9186 171.789C51.68 171.789 51.2031 172.027 50.9645 172.743L43.3316 192.779C43.3316 193.256 43.0932 193.495 42.8546 193.495C42.6161 193.495 42.6161 193.256 42.3776 192.779C40.4694 187.532 37.8455 181.092 34.9832 173.22C34.5062 172.505 34.2676 172.266 34.0291 172.266C33.552 172.266 33.3135 172.505 33.3135 173.22V192.541C33.3135 193.018 33.075 193.256 32.3594 193.256C31.6438 193.256 31.4053 193.018 31.4053 192.541V171.312C31.4053 170.596 31.6439 169.881 32.1209 169.165C32.8365 168.45 33.552 168.211 34.5061 168.211C35.9373 168.211 36.8914 168.927 37.3684 170.119C38.7996 173.459 40.7078 178.229 43.3316 184.669C43.3316 185.146 43.5701 185.385 43.8087 185.385C44.0472 185.385 44.2857 185.146 44.2857 184.669C45.9554 180.376 47.8636 175.605 49.7718 170.358C50.2489 168.927 51.4415 168.211 52.8727 168.211Z" fill="#E1E1E6"/>
<path d="M75.2949 186.339H67.185C66.4694 186.339 66.2309 186.817 65.9924 187.532C65.5154 188.963 65.0384 190.395 64.5613 192.064C64.3228 192.78 63.8457 193.257 63.3686 193.257C62.653 193.257 62.4145 192.78 62.6531 192.064L69.3318 170.12C69.8088 168.45 70.7629 167.734 71.9556 167.734C73.3867 167.734 74.1023 168.211 74.5794 169.404C76.2491 174.652 79.1114 182.046 82.6893 191.826C82.9278 192.064 82.9278 192.541 82.6893 192.78C82.6893 193.018 82.2123 193.257 81.9737 193.257H80.0655C79.3499 193.257 78.6343 192.78 78.3958 192.064L76.7261 187.294C76.7261 186.817 76.249 186.339 75.2949 186.339ZM67.6621 184.67H75.0564C75.5335 184.67 75.772 184.431 75.5335 183.954C74.8179 181.33 73.3867 177.991 71.9556 173.698C71.717 172.982 71.24 172.505 71.0014 172.505C70.7629 172.505 70.2859 172.982 70.2859 173.459C69.5703 175.606 68.6162 178.945 67.185 183.477C66.9465 184.193 66.9465 184.67 67.6621 184.67Z" fill="#E1E1E6"/>
<path d="M91.7528 171.312V189.679C91.7528 190.871 92.2298 191.348 93.1839 191.348H96.0463C98.6701 191.348 100.578 190.394 102.487 188.247C104.156 186.339 104.872 183.715 104.872 180.615C104.872 177.991 104.156 175.606 102.248 173.22C100.578 171.074 98.4316 170.119 96.0463 170.119H92.9454C92.2299 170.119 91.7528 170.358 91.7528 171.312ZM96.7619 193.257H89.8446C89.129 193.257 88.652 193.018 88.4135 193.018C88.1749 192.78 87.9364 192.303 87.9364 191.348V153.184C87.9364 152.468 88.4134 152.23 88.8904 152.23H90.7987C91.5143 152.23 91.7528 152.468 91.7528 153.184V167.257C91.7528 167.973 92.2299 168.211 92.9454 168.211H95.5692C99.1471 168.211 102.486 169.404 105.11 171.551C107.734 173.936 109.165 176.798 109.165 180.138C109.165 183.954 107.973 187.055 105.826 189.679C103.441 192.064 100.578 193.257 96.7619 193.257Z" fill="#E1E1E6"/>
<path d="M129.201 168.211H118.468C116.082 168.211 114.89 169.404 114.89 172.266V189.917C114.89 192.064 116.082 193.256 118.706 193.256H129.201C129.678 193.256 130.156 193.018 130.156 192.302C130.156 191.825 129.678 191.348 128.963 191.348C128.009 191.348 126.339 191.348 124.431 191.348C122.523 191.348 121.33 191.348 120.614 191.348C119.183 191.348 118.706 190.871 118.706 189.679V182.761C118.706 181.807 119.183 181.33 120.376 181.33C121.092 181.33 122.284 181.33 123.715 181.092C125.146 181.092 126.339 181.092 127.055 181.092C127.77 181.092 128.247 180.853 128.247 180.376C128.247 179.66 128.009 179.422 127.293 179.422C126.339 179.422 124.908 179.422 123.477 179.422C121.807 179.422 120.614 179.422 119.66 179.422C118.945 179.422 118.706 178.945 118.706 177.991V172.266C118.706 171.551 118.945 171.073 119.422 170.596C119.66 170.119 120.376 169.881 120.853 169.881C122.046 170.119 123.477 170.119 125.146 169.881C127.055 169.881 128.486 169.881 129.44 169.881C130.155 169.881 130.633 169.642 130.633 169.165C130.633 168.45 130.156 168.211 129.201 168.211Z" fill="#E1E1E6"/>
<path d="M135.403 153.184C135.403 152.468 135.88 152.23 136.596 152.23H138.265C138.981 152.23 139.219 152.468 139.219 153.184V189.679C139.219 190.871 139.696 191.348 140.651 191.348H143.036C143.274 191.348 143.513 191.587 143.513 192.302C143.513 193.018 143.513 193.257 143.274 193.257H138.504C137.55 193.257 136.834 193.018 136.357 192.302C135.88 191.587 135.403 190.871 135.403 190.156V153.184Z" fill="#E1E1E6"/>
<path d="M22.8173 181.569V156.762C22.8173 156.047 23.0558 155.808 23.5329 155.808H24.7255C25.2025 155.808 25.2025 156.047 25.2025 156.762V181.569C25.2025 189.679 21.1476 193.734 12.7991 193.734C8.74419 193.734 5.6434 192.541 3.25814 189.917C1.34992 187.294 0.395752 184.193 0.395752 180.138V156.762C0.395752 156.047 0.6343 155.808 1.34988 155.808H3.49662C3.97368 155.808 4.45075 156.047 4.45075 156.762V180.138C4.45075 183.716 5.40483 186.578 7.31304 188.725C8.98273 190.633 11.1294 191.587 13.9918 191.587C16.6156 191.587 18.7623 190.633 20.432 188.725C22.1017 186.817 22.8173 184.67 22.8173 181.569Z" stroke="#E1E1E6" stroke-width="0.11" stroke-miterlimit="22.9256"/>
<path d="M52.8727 168.211C55.0194 168.211 56.2121 169.404 56.2121 172.028V192.302C56.2121 193.018 55.9735 193.256 55.2579 193.256H53.3498C52.8727 193.256 52.3956 193.018 52.3956 192.302V172.743C52.3956 172.027 52.3956 171.789 51.9186 171.789C51.68 171.789 51.2031 172.027 50.9645 172.743L43.3316 192.779C43.3316 193.256 43.0932 193.495 42.8546 193.495C42.6161 193.495 42.6161 193.256 42.3776 192.779C40.4694 187.532 37.8455 181.092 34.9832 173.22C34.5062 172.505 34.2676 172.266 34.0291 172.266C33.552 172.266 33.3135 172.505 33.3135 173.22V192.541C33.3135 193.018 33.075 193.256 32.3594 193.256C31.6438 193.256 31.4053 193.018 31.4053 192.541V171.312C31.4053 170.596 31.6439 169.881 32.1209 169.165C32.8365 168.45 33.552 168.211 34.5061 168.211C35.9373 168.211 36.8914 168.927 37.3684 170.119C38.7996 173.459 40.7078 178.229 43.3316 184.669C43.3316 185.146 43.5701 185.385 43.8087 185.385C44.0472 185.385 44.2857 185.146 44.2857 184.669C45.9554 180.376 47.8636 175.605 49.7718 170.358C50.2489 168.927 51.4415 168.211 52.8727 168.211Z" stroke="#E1E1E6" stroke-width="0.11" stroke-miterlimit="22.9256"/>
<path d="M75.2949 186.339H67.185C66.4694 186.339 66.2309 186.817 65.9924 187.532C65.5154 188.963 65.0384 190.395 64.5613 192.064C64.3228 192.78 63.8457 193.257 63.3686 193.257C62.653 193.257 62.4145 192.78 62.6531 192.064L69.3318 170.12C69.8088 168.45 70.7629 167.734 71.9556 167.734C73.3867 167.734 74.1023 168.211 74.5794 169.404C76.2491 174.652 79.1114 182.046 82.6893 191.826C82.9278 192.064 82.9278 192.541 82.6893 192.78C82.6893 193.018 82.2123 193.257 81.9737 193.257H80.0655C79.3499 193.257 78.6343 192.78 78.3958 192.064L76.7261 187.294C76.7261 186.817 76.249 186.339 75.2949 186.339ZM67.6621 184.67H75.0564C75.5335 184.67 75.772 184.431 75.5335 183.954C74.8179 181.33 73.3867 177.991 71.9556 173.698C71.717 172.982 71.24 172.505 71.0014 172.505C70.7629 172.505 70.2859 172.982 70.2859 173.459C69.5703 175.606 68.6162 178.945 67.185 183.477C66.9465 184.193 66.9465 184.67 67.6621 184.67Z" stroke="#E1E1E6" stroke-width="0.11" stroke-miterlimit="22.9256"/>
<path d="M91.7528 171.312V189.679C91.7528 190.871 92.2298 191.348 93.1839 191.348H96.0463C98.6701 191.348 100.578 190.394 102.487 188.247C104.156 186.339 104.872 183.715 104.872 180.615C104.872 177.991 104.156 175.606 102.248 173.22C100.578 171.074 98.4316 170.119 96.0463 170.119H92.9454C92.2299 170.119 91.7528 170.358 91.7528 171.312ZM96.7619 193.257H89.8446C89.129 193.257 88.652 193.018 88.4135 193.018C88.1749 192.78 87.9364 192.303 87.9364 191.348V153.184C87.9364 152.468 88.4134 152.23 88.8904 152.23H90.7987C91.5143 152.23 91.7528 152.468 91.7528 153.184V167.257C91.7528 167.973 92.2299 168.211 92.9454 168.211H95.5692C99.1471 168.211 102.486 169.404 105.11 171.551C107.734 173.936 109.165 176.798 109.165 180.138C109.165 183.954 107.973 187.055 105.826 189.679C103.441 192.064 100.578 193.257 96.7619 193.257Z" stroke="#E1E1E6" stroke-width="0.11" stroke-miterlimit="22.9256"/>
<path d="M129.201 168.211H118.468C116.082 168.211 114.89 169.404 114.89 172.266V189.917C114.89 192.064 116.082 193.256 118.706 193.256H129.201C129.678 193.256 130.156 193.018 130.156 192.302C130.156 191.825 129.678 191.348 128.963 191.348C128.009 191.348 126.339 191.348 124.431 191.348C122.523 191.348 121.33 191.348 120.614 191.348C119.183 191.348 118.706 190.871 118.706 189.679V182.761C118.706 181.807 119.183 181.33 120.376 181.33C121.092 181.33 122.284 181.33 123.715 181.092C125.146 181.092 126.339 181.092 127.055 181.092C127.77 181.092 128.247 180.853 128.247 180.376C128.247 179.66 128.009 179.422 127.293 179.422C126.339 179.422 124.908 179.422 123.477 179.422C121.807 179.422 120.614 179.422 119.66 179.422C118.945 179.422 118.706 178.945 118.706 177.991V172.266C118.706 171.551 118.945 171.073 119.422 170.596C119.66 170.119 120.376 169.881 120.853 169.881C122.046 170.119 123.477 170.119 125.146 169.881C127.055 169.881 128.486 169.881 129.44 169.881C130.155 169.881 130.633 169.642 130.633 169.165C130.633 168.45 130.156 168.211 129.201 168.211Z" stroke="#E1E1E6" stroke-width="0.11" stroke-miterlimit="22.9256"/>
<path d="M135.403 153.184C135.403 152.468 135.88 152.23 136.596 152.23H138.265C138.981 152.23 139.219 152.468 139.219 153.184V189.679C139.219 190.871 139.696 191.348 140.651 191.348H143.036C143.274 191.348 143.513 191.587 143.513 192.302C143.513 193.018 143.513 193.257 143.274 193.257H138.504C137.55 193.257 136.834 193.018 136.357 192.302C135.88 191.587 135.403 190.871 135.403 190.156V153.184Z" stroke="#E1E1E6" stroke-width="0.11" stroke-miterlimit="22.9256"/>
</svg>
